<?xml version="1.0" encoding="utf-8"?>
<!-- Generator: Adobe Illustrator 24.0.1, SVG Export Plug-In . SVG Version: 6.00 Build 0)  -->
<svg version="1.1" xmlns="http://www.w3.org/2000/svg" xmlns:xlink="http://www.w3.org/1999/xlink" x="0px" y="0px"
	 viewBox="0 0 251.41 230.58" style="enable-background:new 0 0 251.41 230.58;" xml:space="preserve">
<style type="text/css">
	.st0{fill:#231F20;}
	.st1{fill:#FFFFFF;}
</style>
<g id="Bg">
</g>
<g id="Layer_1">
	<g>
		<g>
			<path class="st0" d="M-2507.29,240.58c-4.19-0.94-7.88,0.65-10.24,2.15c-5.44,3.47-9.69,10.11-11.35,17.77
				c-2.8,12.86,2.42,25.43,11.39,27.45c4.19,0.94,7.88-0.65,10.24-2.15c5.44-3.47,9.69-10.11,11.35-17.77
				C-2493.11,255.18-2498.32,242.6-2507.29,240.58z"/>
			<path class="st0" d="M-2418.3,132.7h-185.08c-8.45,0-15.31,6.85-15.31,15.31v17.03h-20.45c-5.5,0-9.96,4.46-9.96,9.96
				c0,5.5,4.46,9.96,9.96,9.96h20.45v38.64h-20.45c-5.5,0-9.96,4.46-9.96,9.96c0,5.5,4.46,9.96,9.96,9.96h20.45v38.64h-20.45
				c-5.5,0-9.96,4.46-9.96,9.96c0,5.5,4.46,9.96,9.96,9.96h20.45v38.64h-20.45c-5.5,0-9.96,4.46-9.96,9.96
				c0,5.5,4.46,9.96,9.96,9.96h20.45v17.03c0,8.45,6.85,15.31,15.31,15.31h185.08c8.46,0,15.31-6.85,15.31-15.31V148
				C-2402.99,139.55-2409.84,132.7-2418.3,132.7z M-2449.7,266.36c-1.66,9.47-10.82,36.41-30.46,36.42c-0.06,0-0.11,0-0.17,0
				c-3.99,0-7.62-1.67-10.44-4.84c-1.45-1.63-2.56-3.5-3.39-5.44c-1.8,1.79-3.75,3.37-5.83,4.7c-4.7,3-9.88,4.55-14.99,4.55
				c-1.84,0-3.67-0.2-5.47-0.61c-16.34-3.68-26.04-23.2-21.62-43.5c2.45-11.26,8.75-20.84,17.29-26.29
				c6.39-4.07,13.66-5.47,20.47-3.94c5.83,1.31,10.81,4.65,14.61,9.32c0.25-1.63,0.42-2.68,0.46-2.92c0.58-3.69,4.03-6.21,7.72-5.63
				c3.69,0.58,6.21,4.03,5.63,7.72c-0.06,0.39-6.07,38.86-6.87,45.78c-0.3,2.57,1.33,7.12,2.45,7.6c0.02,0,0.08,0.01,0.1,0
				c0.02,0,0.04,0,0.05,0c8.95,0,15.9-18.04,17.16-25.24c2.53-14.42-0.34-27.06-8.31-36.55c-8.7-10.36-22.74-16.3-38.51-16.3
				c-27.28,0-48.16,21.44-49.65,50.98c-1.83,36.18,25.82,50.71,50.05,52.16c22.15,1.33,36.2-6.9,39.97-9.45
				c3.09-2.09,7.29-1.28,9.38,1.81c2.09,3.09,1.28,7.29-1.81,9.38c-5.53,3.74-20.21,11.92-42.68,11.92c-1.84,0-3.73-0.05-5.67-0.17
				c-17.8-1.07-33.79-7.59-45.01-18.36c-12.57-12.06-18.7-28.64-17.72-47.97c0.88-17.39,7.56-33.41,18.82-45.1
				c11.61-12.06,27.35-18.7,44.32-18.7c19.78,0,37.58,7.7,48.86,21.12C-2450.36,231.44-2446.46,247.89-2449.7,266.36z"/>
		</g>
		<g>
			<g>
				<path class="st0" d="M-2519.19,513.78c-67.61,0-131.18-26.33-178.99-74.14c-47.81-47.81-74.14-111.38-74.14-178.99
					s26.33-131.18,74.14-178.99c47.81-47.81,111.38-74.14,178.99-74.14c67.61,0,131.18,26.33,178.99,74.14
					s74.14,111.38,74.14,178.99s-26.33,131.18-74.14,178.99S-2451.58,513.78-2519.19,513.78z M-2519.19,37.4
					c-123.1,0-223.26,100.15-223.26,223.26c0,123.1,100.15,223.26,223.26,223.26c123.1,0,223.26-100.15,223.26-223.26
					C-2295.94,137.55-2396.09,37.4-2519.19,37.4z"/>
			</g>
		</g>
	</g>
	<g>
		<path class="st0" d="M-2517.25-479.39c-51.76,0-93.72,41.96-93.72,93.72c0,51.76,93.72,158.83,93.72,158.83
			s93.72-107.07,93.72-158.83C-2423.54-437.44-2465.49-479.39-2517.25-479.39z M-2517.25-345.56c-23.37,0-42.32-18.95-42.32-42.32
			c0-23.37,18.95-42.32,42.32-42.32c23.37,0,42.32,18.95,42.32,42.32C-2474.93-364.5-2493.88-345.56-2517.25-345.56z"/>
		<g>
			<g>
				<path class="st0" d="M-2519.19-100.58c-67.61,0-131.18-26.33-178.99-74.14c-47.81-47.81-74.14-111.38-74.14-178.99
					s26.33-131.18,74.14-178.99c47.81-47.81,111.38-74.14,178.99-74.14c67.61,0,131.18,26.33,178.99,74.14
					s74.14,111.38,74.14,178.99s-26.33,131.18-74.14,178.99S-2451.58-100.58-2519.19-100.58z M-2519.19-576.97
					c-123.1,0-223.26,100.15-223.26,223.26c0,123.1,100.15,223.26,223.26,223.26c123.1,0,223.26-100.15,223.26-223.26
					C-2295.94-476.81-2396.09-576.97-2519.19-576.97z"/>
			</g>
		</g>
	</g>
	<g>
		<g>
			<g>
				<path class="st0" d="M-2519.19-714.95c-67.61,0-131.18-26.33-178.99-74.14c-47.81-47.81-74.14-111.38-74.14-178.99
					s26.33-131.18,74.14-178.99c47.81-47.81,111.38-74.14,178.99-74.14c67.61,0,131.18,26.33,178.99,74.14
					c47.81,47.81,74.14,111.38,74.14,178.99s-26.33,131.18-74.14,178.99C-2388.02-741.28-2451.58-714.95-2519.19-714.95z
					 M-2519.19-1191.33c-123.1,0-223.26,100.15-223.26,223.26c0,123.1,100.15,223.26,223.26,223.26
					c123.1,0,223.26-100.15,223.26-223.26C-2295.94-1091.18-2396.09-1191.33-2519.19-1191.33z"/>
			</g>
		</g>
		<g>
			<path class="st0" d="M-2392.69-1038.74c0-9.35-7.58-16.93-16.93-16.93h-30.58v-24.81c0-5.5-4.46-9.96-9.96-9.96
				s-9.96,4.46-9.96,9.96v24.81h-114.28v-27.39c0-5.5-4.46-9.96-9.96-9.96c-5.5,0-9.96,4.46-9.96,9.96v27.39h-30.58
				c-9.35,0-16.93,7.58-16.93,16.93v19.76h249.13V-1038.74z"/>
			<path class="st0" d="M-2641.82-866.12c0,9.35,7.58,16.93,16.93,16.93h215.27c9.35,0,16.93-7.58,16.93-16.93v-140.91h-249.13
				V-866.12z M-2460.43-983.03h18.19c3.3,0,5.97,2.68,5.97,5.97s-2.67,5.97-5.97,5.97h-18.19c-3.3,0-5.97-2.68-5.97-5.97
				S-2463.73-983.03-2460.43-983.03z M-2460.43-938.65h18.19c3.3,0,5.97,2.68,5.97,5.97c0,3.3-2.67,5.97-5.97,5.97h-18.19
				c-3.3,0-5.97-2.68-5.97-5.97C-2466.41-935.97-2463.73-938.65-2460.43-938.65z M-2460.43-894.26h18.19c3.3,0,5.97,2.67,5.97,5.97
				s-2.67,5.97-5.97,5.97h-18.19c-3.3,0-5.97-2.68-5.97-5.97S-2463.73-894.26-2460.43-894.26z M-2525.15-983.03h18.19
				c3.3,0,5.97,2.68,5.97,5.97s-2.67,5.97-5.97,5.97h-18.19c-3.3,0-5.97-2.68-5.97-5.97S-2528.45-983.03-2525.15-983.03z
				 M-2525.15-938.65h18.19c3.3,0,5.97,2.68,5.97,5.97c0,3.3-2.67,5.97-5.97,5.97h-18.19c-3.3,0-5.97-2.68-5.97-5.97
				C-2531.12-935.97-2528.45-938.65-2525.15-938.65z M-2525.15-894.26h18.19c3.3,0,5.97,2.67,5.97,5.97s-2.67,5.97-5.97,5.97h-18.19
				c-3.3,0-5.97-2.68-5.97-5.97S-2528.45-894.26-2525.15-894.26z M-2590.92-983.03h18.19c3.3,0,5.97,2.68,5.97,5.97
				s-2.67,5.97-5.97,5.97h-18.19c-3.3,0-5.97-2.68-5.97-5.97S-2594.22-983.03-2590.92-983.03z M-2590.92-938.65h18.19
				c3.3,0,5.97,2.68,5.97,5.97c0,3.3-2.67,5.97-5.97,5.97h-18.19c-3.3,0-5.97-2.68-5.97-5.97
				C-2596.89-935.97-2594.22-938.65-2590.92-938.65z M-2590.92-894.26h18.19c3.3,0,5.97,2.67,5.97,5.97s-2.67,5.97-5.97,5.97h-18.19
				c-3.3,0-5.97-2.68-5.97-5.97S-2594.22-894.26-2590.92-894.26z"/>
		</g>
	</g>
	<g>
		<path class="st0" d="M-3816.6,127.1c-71.42-4-132.56,50.66-136.56,122.08c-4,71.42,50.66,132.56,122.08,136.56
			s132.56-50.66,136.56-122.08C-3690.53,192.24-3745.18,131.1-3816.6,127.1z M-3757.15,204.41l-61.94,62.53
			c-0.02,0.02-0.04,0.03-0.06,0.05c-0.09,0.09-0.17,0.18-0.27,0.26c-0.11,0.1-0.24,0.17-0.36,0.26c-0.13,0.1-0.26,0.2-0.4,0.29
			c-0.2,0.12-0.4,0.22-0.6,0.32c-0.13,0.06-0.26,0.14-0.4,0.19c-0.24,0.09-0.48,0.16-0.73,0.22c-0.11,0.03-0.22,0.07-0.34,0.09
			c-0.36,0.07-0.73,0.11-1.1,0.11c0,0,0,0,0,0c0,0,0,0,0,0c0,0,0,0,0,0c-0.35,0-0.7-0.04-1.05-0.1c-0.04-0.01-0.08-0.01-0.12-0.02
			c-0.33-0.07-0.65-0.16-0.97-0.29c-0.05-0.02-0.1-0.04-0.16-0.06c-0.31-0.13-0.61-0.29-0.9-0.47c-0.05-0.03-0.09-0.06-0.14-0.09
			c-0.29-0.19-0.56-0.41-0.82-0.66c-0.02-0.02-0.04-0.03-0.05-0.04c-0.02-0.02-0.04-0.05-0.06-0.08c-0.08-0.08-0.16-0.16-0.24-0.25
			l-43.23-49.73c-2.16-2.49-1.9-6.26,0.59-8.43c2.49-2.16,6.26-1.9,8.43,0.59l39.01,44.87l57.41-57.95c2.32-2.34,6.1-2.36,8.45-0.04
			C-3754.85,198.28-3754.83,202.06-3757.15,204.41z"/>
		<g>
			<g>
				<path class="st0" d="M-3823.6,513.78c-67.61,0-131.18-26.33-178.99-74.14c-47.81-47.81-74.14-111.38-74.14-178.99
					s26.33-131.18,74.14-178.99c47.81-47.81,111.38-74.14,178.99-74.14c67.61,0,131.18,26.33,178.99,74.14
					c47.81,47.81,74.14,111.38,74.14,178.99s-26.33,131.18-74.14,178.99C-3692.42,487.45-3755.98,513.78-3823.6,513.78z
					 M-3823.6,37.4c-123.1,0-223.26,100.15-223.26,223.26c0,123.1,100.15,223.26,223.26,223.26c123.1,0,223.26-100.15,223.26-223.26
					C-3600.34,137.55-3700.49,37.4-3823.6,37.4z"/>
			</g>
		</g>
	</g>
	<g>
		<g>
			<g>
				<path class="st0" d="M-3823.6-714.95c-67.61,0-131.18-26.33-178.99-74.14c-47.81-47.81-74.14-111.38-74.14-178.99
					s26.33-131.18,74.14-178.99c47.81-47.81,111.38-74.14,178.99-74.14c67.61,0,131.18,26.33,178.99,74.14
					c47.81,47.81,74.14,111.38,74.14,178.99s-26.33,131.18-74.14,178.99C-3692.42-741.28-3755.98-714.95-3823.6-714.95z
					 M-3823.6-1191.33c-123.1,0-223.26,100.15-223.26,223.26c0,123.1,100.15,223.26,223.26,223.26
					c123.1,0,223.26-100.15,223.26-223.26C-3600.34-1091.18-3700.49-1191.33-3823.6-1191.33z"/>
			</g>
		</g>
		<g>
			<path class="st0" d="M-3707.7-910.25v-138.11c0-9.35-7.58-16.93-16.93-16.93h-199.64c-9.35,0-16.93,7.58-16.93,16.93v138.11
				H-3707.7z M-3829.61-1052.25h9.43c3.3,0,5.97,2.68,5.97,5.97s-2.67,5.97-5.97,5.97h-9.43c-3.3,0-5.97-2.68-5.97-5.97
				S-3832.91-1052.25-3829.61-1052.25z"/>
			<path class="st0" d="M-3965.72-898.3c3.5,12.51,14.97,21.69,28.6,21.69h225.34c13.63,0,25.1-9.18,28.6-21.69H-3965.72z"/>
		</g>
	</g>
	<g>
		<g>
			<g>
				<path class="st0" d="M-3823.6-100.58c-67.61,0-131.18-26.33-178.99-74.14c-47.81-47.81-74.14-111.38-74.14-178.99
					s26.33-131.18,74.14-178.99c47.81-47.81,111.38-74.14,178.99-74.14c67.61,0,131.18,26.33,178.99,74.14
					c47.81,47.81,74.14,111.38,74.14,178.99s-26.33,131.18-74.14,178.99C-3692.42-126.91-3755.98-100.58-3823.6-100.58z
					 M-3823.6-576.97c-123.1,0-223.26,100.15-223.26,223.26c0,123.1,100.15,223.26,223.26,223.26
					c123.1,0,223.26-100.15,223.26-223.26C-3600.34-476.81-3700.49-576.97-3823.6-576.97z"/>
			</g>
		</g>
		<g>
			<g>
				<path class="st0" d="M-3834.72-316.8c-5.7,0-11.44-0.76-17.08-2.34c-5.3-1.47-8.4-6.96-6.92-12.26c1.47-5.3,6.96-8.4,12.26-6.92
					c15.33,4.27,31.75-0.11,42.85-11.42l62.01-63.19c8.17-8.32,12.6-19.32,12.49-30.98c-0.11-11.66-4.75-22.58-13.07-30.74
					c-8.32-8.17-19.32-12.64-30.98-12.49c-11.66,0.11-22.58,4.75-30.74,13.07l-62.01,63.19c-10.7,10.91-14.86,26.3-11.12,41.19
					c1.34,5.33-1.9,10.74-7.23,12.08c-5.33,1.34-10.74-1.9-12.08-7.23c-5.44-21.67,0.62-44.09,16.22-59.99l62.01-63.19
					c11.89-12.12,27.79-18.88,44.77-19.04c16.97-0.15,33,6.3,45.12,18.19c12.12,11.89,18.88,27.79,19.04,44.77
					c0.16,16.98-6.3,33-18.19,45.12l-62.01,63.19C-3801.48-323.48-3817.89-316.8-3834.72-316.8z"/>
			</g>
			<g>
				<path class="st0" d="M-3876.16-198.97c-16.75,0-32.53-6.45-44.5-18.2c-12.12-11.89-18.88-27.79-19.04-44.77
					c-0.16-16.98,6.3-33,18.19-45.12l62.01-63.19c16.18-16.49,40.09-22.87,62.4-16.66c5.3,1.47,8.4,6.96,6.92,12.26
					c-1.47,5.3-6.96,8.4-12.26,6.92c-15.33-4.26-31.75,0.11-42.85,11.42l-62.01,63.19c-8.17,8.32-12.6,19.32-12.49,30.98
					c0.11,11.66,4.75,22.58,13.07,30.74c8.32,8.17,19.31,12.6,30.98,12.49c11.66-0.11,22.58-4.75,30.74-13.07l62.01-63.19
					c10.7-10.91,14.86-26.3,11.12-41.19c-1.34-5.33,1.9-10.74,7.23-12.08c5.33-1.34,10.74,1.9,12.08,7.23
					c5.44,21.67-0.62,44.09-16.22,59.99l-62.01,63.19c-11.89,12.12-27.79,18.88-44.77,19.04
					C-3875.75-198.97-3875.96-198.97-3876.16-198.97z"/>
			</g>
		</g>
	</g>
	<g>
		<g>
			<g>
				<path class="st0" d="M-3171.4-714.95c-67.61,0-131.18-26.33-178.99-74.14c-47.81-47.81-74.14-111.38-74.14-178.99
					s26.33-131.18,74.14-178.99c47.81-47.81,111.38-74.14,178.99-74.14c67.61,0,131.18,26.33,178.99,74.14
					c47.81,47.81,74.14,111.38,74.14,178.99s-26.33,131.18-74.14,178.99C-3040.22-741.28-3103.78-714.95-3171.4-714.95z
					 M-3171.4-1191.33c-123.1,0-223.26,100.15-223.26,223.26c0,123.1,100.15,223.26,223.26,223.26
					c123.1,0,223.26-100.15,223.26-223.26C-2948.14-1091.18-3048.29-1191.33-3171.4-1191.33z"/>
			</g>
		</g>
		<path class="st0" d="M-3166.31-952.1v59.12l118.17-92.82l-118.17-92.82v59.98c-64.24,0-116.32,45.73-116.32,108.91
			c0,0.44,0.06,0.86,0.07,1.29C-3251.7-949.35-3205.89-952.1-3166.31-952.1z"/>
	</g>
	<g>
		<g>
			<g>
				<path class="st0" d="M-3171.4,513.78c-67.61,0-131.18-26.33-178.99-74.14c-47.81-47.81-74.14-111.38-74.14-178.99
					s26.33-131.18,74.14-178.99c47.81-47.81,111.38-74.14,178.99-74.14c67.61,0,131.18,26.33,178.99,74.14
					c47.81,47.81,74.14,111.38,74.14,178.99s-26.33,131.18-74.14,178.99C-3040.22,487.45-3103.78,513.78-3171.4,513.78z
					 M-3171.4,37.4c-123.1,0-223.26,100.15-223.26,223.26c0,123.1,100.15,223.26,223.26,223.26c123.1,0,223.26-100.15,223.26-223.26
					C-2948.14,137.55-3048.29,37.4-3171.4,37.4z"/>
			</g>
		</g>
		<path class="st0" d="M-3045.25,238.14v-4.01c0-70.78-57.58-128.36-128.36-128.36c-70.78,0-128.36,57.58-128.36,128.36v3.17
			c-16.41,8.45-27.54,24.83-27.54,43.65v7.45c0,27.47,23.7,49.74,52.94,49.74h1.4c1.36,26.39,23.13,47.44,49.69,47.44h20.13
			c2.56,6.09,8.58,10.36,15.61,10.36h31.54c9.35,0,16.93-7.58,16.93-16.93v-1.81c0-9.35-7.58-16.93-16.93-16.93h-31.54
			c-7.02,0-13.04,4.28-15.61,10.36h-20.13c-19.2,0-34.83-15.76-34.83-35.13v-15.47h-0.52v-73.1c0-8.7-7.05-15.75-15.75-15.75
			c-1.84,0-3.66,0.09-5.45,0.26c1.42-58.57,49.5-105.78,108.41-105.78c59.19,0,107.44,47.66,108.42,106.62
			c-1.8-0.17-3.62-0.26-5.46-0.26c-8.7,0-15.75,7.05-15.75,15.75v75.44c0,8.7,7.05,15.75,15.75,15.75
			c29.24,0,52.94-22.27,52.94-49.74v-7.45C-3017.71,262.96-3028.83,246.59-3045.25,238.14z"/>
	</g>
	<g>
		<polygon class="st0" points="-3166.83,-476.97 -3292.54,-372.03 -3252.67,-372.03 -3252.67,-246.39 -3191.9,-246.39 
			-3191.76,-246.39 -3191.76,-336.97 -3141.91,-336.97 -3141.91,-246.39 -3141.77,-246.39 -3080.99,-246.39 -3080.99,-372.03 
			-3041.13,-372.03 		"/>
	</g>
	<g>
		<g>
			<path class="st0" d="M-1803.12,191.54l-118.77,0c-3.3,0-5.97,2.67-5.97,5.97c0,3.3,2.67,5.97,5.97,5.97l118.77,0
				c3.3,0,5.97-2.67,5.97-5.97C-1797.15,194.22-1799.82,191.54-1803.12,191.54z"/>
			<path class="st0" d="M-1822.38,225.48h-80.25c-3.3,0-5.97,2.68-5.97,5.97s2.67,5.97,5.97,5.97h80.25c3.3,0,5.97-2.68,5.97-5.97
				S-1819.08,225.48-1822.38,225.48z"/>
			<path class="st0" d="M-1732.66,218.48l-26.88-22.82v-52.85c0-3.3-2.68-5.97-5.97-5.97h-193.97c-3.3,0-5.97,2.68-5.97,5.97v53.21
				l-26.45,22.45c-1.89,1.6-1.87,4.02-1.84,6.35v143.52c0,7.67,6.22,13.89,13.89,13.89h234.71c7.67,0,13.89-6.22,13.89-13.89V225.84
				C-1731.25,223.33-1730.99,219.93-1732.66,218.48z M-1985.64,228.48c0.51-0.23,1.01-0.51,1.46-0.89l18.72-15.89v31.7
				L-1985.64,228.48z M-1953.52,252.24V148.79h182.02v103.45l-91.01,67.3L-1953.52,252.24z M-1759.54,243.4v-32.07l19.15,16.26
				c0.37,0.32,0.78,0.56,1.19,0.77L-1759.54,243.4z"/>
		</g>
		<g>
			<g>
				<path class="st0" d="M-1866.99,513.78c-67.61,0-131.18-26.33-178.99-74.14s-74.14-111.38-74.14-178.99
					s26.33-131.18,74.14-178.99s111.38-74.14,178.99-74.14c67.61,0,131.18,26.33,178.99,74.14
					c47.81,47.81,74.14,111.38,74.14,178.99s-26.33,131.18-74.14,178.99C-1735.81,487.45-1799.38,513.78-1866.99,513.78z
					 M-1866.99,37.4c-123.1,0-223.26,100.15-223.26,223.26c0,123.1,100.15,223.26,223.26,223.26
					c123.1,0,223.26-100.15,223.26-223.26C-1643.74,137.55-1743.89,37.4-1866.99,37.4z"/>
			</g>
		</g>
	</g>
	<g>
		<path class="st0" d="M-1922.54-287.05v-137.44c0-9.39,7.61-17,17-17h157.01c9.39,0,17,7.61,17,17v137.44c0,9.39-7.61,17-17,17
			h-157.01C-1914.93-270.05-1922.54-277.66-1922.54-287.05z"/>
		<g>
			<g>
				<path class="st0" d="M-1866.99-100.58c-67.61,0-131.18-26.33-178.99-74.14s-74.14-111.38-74.14-178.99
					s26.33-131.18,74.14-178.99s111.38-74.14,178.99-74.14c67.61,0,131.18,26.33,178.99,74.14
					c47.81,47.81,74.14,111.38,74.14,178.99s-26.33,131.18-74.14,178.99C-1735.81-126.91-1799.38-100.58-1866.99-100.58z
					 M-1866.99-576.97c-123.1,0-223.26,100.15-223.26,223.26c0,123.1,100.15,223.26,223.26,223.26
					c123.1,0,223.26-100.15,223.26-223.26C-1643.74-476.81-1743.89-576.97-1866.99-576.97z"/>
			</g>
		</g>
		<g>
			<polygon class="st0" points="-1922.57,-391.58 -1922.57,-318.68 -1922.54,-318.7 -1922.54,-358.45 -1922.54,-391.57 			"/>
			<polygon class="st0" points="-1934.52,-397.64 -2004.85,-433.32 -2004.85,-276.94 -1934.52,-312.62 			"/>
		</g>
	</g>
	<g>
		<g>
			<g>
				<path class="st0" d="M-1866.99-714.95c-67.61,0-131.18-26.33-178.99-74.14c-47.81-47.81-74.14-111.38-74.14-178.99
					s26.33-131.18,74.14-178.99c47.81-47.81,111.38-74.14,178.99-74.14c67.61,0,131.18,26.33,178.99,74.14
					c47.81,47.81,74.14,111.38,74.14,178.99s-26.33,131.18-74.14,178.99C-1735.81-741.28-1799.38-714.95-1866.99-714.95z
					 M-1866.99-1191.33c-123.1,0-223.26,100.15-223.26,223.26c0,123.1,100.15,223.26,223.26,223.26
					c123.1,0,223.26-100.15,223.26-223.26C-1643.74-1091.18-1743.89-1191.33-1866.99-1191.33z"/>
			</g>
		</g>
		<g>
			
				<ellipse transform="matrix(0.7071 -0.7071 0.7071 0.7071 180.4152 -1624.3136)" class="st0" cx="-1870.51" cy="-1029.94" rx="64.33" ry="64.33"/>
			<path class="st0" d="M-1770.35-859.88v-47.92c0-14.66-9.24-27.79-23.22-32.99l-41.23-15.34h-3.83
				c-9.41,5.28-20.28,8.35-31.89,8.35c-11.62,0-22.49-3.06-31.89-8.35h-3.82l-41.23,15.34c-13.97,5.2-23.22,18.33-23.22,32.99v47.92
				H-1770.35z"/>
		</g>
	</g>
	<g>
		<polygon class="st1" points="125.7,0 0,104.94 39.87,104.94 39.87,230.58 100.64,230.58 100.78,230.58 100.78,140 150.63,140 
			150.63,230.58 150.77,230.58 211.54,230.58 211.54,104.94 251.41,104.94 		"/>
	</g>
</g>
</svg>
