<?xml version="1.0" encoding="utf-8"?>
<!-- Generator: Adobe Illustrator 24.0.1, SVG Export Plug-In . SVG Version: 6.00 Build 0)  -->
<svg version="1.1" id="Layer_1" xmlns="http://www.w3.org/2000/svg" xmlns:xlink="http://www.w3.org/1999/xlink" x="0px" y="0px"
	 viewBox="0 0 62.1 41.39" style="enable-background:new 0 0 62.1 41.39;" xml:space="preserve">
<style type="text/css">
	.st0{fill:#FFFFFF;}
</style>
<g>
	<path class="st0" d="M-40.92,56.86v2.6h5.12v6.58h-2.66v-4.5h-10.42v-2.08h5.32v-2.6h-7v-2.1h11.72c0.34-1.68,0.4-3.02,0.4-4.24
		H-48.5V48.4h12.66v1.48c0,1.38,0,2.92-0.36,4.88h2.32v2.1H-40.92z"/>
	<path class="st0" d="M-28.8,59.28c1.44-0.04,3.02-0.16,4.78-0.48l0.22,2.22c-2.4,0.44-4.52,0.54-6.36,0.54h-1.28v-11.9h2.64V59.28z
		 M-16.37,47.6v18.42h-2.52v-9.18h-1.66v8.32h-2.46V47.94h2.46v6.76h1.66v-7.1H-16.37z"/>
	<path class="st0" d="M-40.96,82.54c-1.92-0.7-3.24-2.04-4-3.74c-0.78,1.9-2.2,3.4-4.34,4.18l-1.38-2.06
		c3.04-1.02,4.32-3.58,4.32-6.2v-1.98h2.68v2c0,2.4,1.24,4.74,4.12,5.76L-40.96,82.54z M-34.75,87.62v2.1h-12.56v-5.86h2.64v3.76
		H-34.75z M-37.8,77.68h-3.38v-2.14h3.38v-3.92h2.64v13.6h-2.64V77.68z"/>
	<path class="st0" d="M-15.47,85.7v2.12h-16.68V85.7h3.5v-5.82h2.6v5.82h1.96v-5.82h2.58v5.82H-15.47z M-20.26,83.24
		c0.6-3.34,0.62-5.82,0.62-7.94h-10.9v-2.1H-17v1.78c0,2.26,0,4.8-0.62,8.52L-20.26,83.24z"/>
</g>
<g>
	<path class="st0" d="M-150.14,7.11h3.06v2.1h-8.8v-2.1h3.14V4.83h2.6V7.11z M-147.4,14.41c0,2.56-1.68,4.38-4.04,4.38
		c-2.36,0-4.04-1.82-4.04-4.38c0-2.58,1.68-4.4,4.04-4.4C-149.08,10.01-147.4,11.83-147.4,14.41z M-149.72,14.41
		c0-1.38-0.72-2.2-1.72-2.2c-1,0-1.72,0.82-1.72,2.2s0.72,2.18,1.72,2.18C-150.44,16.59-149.72,15.79-149.72,14.41z M-140.06,4.31
		v18.42h-2.5v-8.78h-1.4v8.02h-2.46V4.67h2.46v7.16h1.4V4.31H-140.06z"/>
	<path class="st0" d="M-130.22,16.79c1.5-0.1,3.04-0.22,4.48-0.44l0.16,1.9c-3.96,0.8-8.28,0.84-11.46,0.84l-0.34-2.14
		c1.34,0,2.9,0,4.52-0.04v-2.58c-2.2-0.48-3.74-2.18-3.74-4.4c0-2.64,2.18-4.54,5.06-4.54c2.88,0,5.08,1.9,5.08,4.54
		c0,2.22-1.56,3.92-3.76,4.4V16.79z M-131.54,12.21c1.42,0,2.5-0.84,2.5-2.28c0-1.44-1.08-2.28-2.5-2.28c-1.42,0-2.5,0.84-2.5,2.28
		C-134.04,11.37-132.96,12.21-131.54,12.21z M-122.1,4.31v18.48h-2.64V4.31H-122.1z"/>
	<path class="st0" d="M-146.26,39.25c-1.92-0.7-3.24-2.04-4-3.74c-0.78,1.9-2.2,3.4-4.34,4.18l-1.38-2.06
		c3.04-1.02,4.32-3.58,4.32-6.2v-1.98h2.68v2c0,2.4,1.24,4.74,4.12,5.76L-146.26,39.25z M-140.06,44.33v2.1h-12.56v-5.86h2.64v3.76
		H-140.06z M-143.1,34.39h-3.38v-2.14h3.38v-3.92h2.64v13.6h-2.64V34.39z"/>
	<path class="st0" d="M-120.77,42.41v2.12h-16.68v-2.12h3.5v-5.82h2.6v5.82h1.96v-5.82h2.58v5.82H-120.77z M-125.56,39.95
		c0.6-3.34,0.62-5.82,0.62-7.94h-10.9v-2.1h13.54v1.78c0,2.26,0,4.8-0.62,8.52L-125.56,39.95z"/>
</g>
<g>
	<path class="st0" d="M2.46,10.96c2.36-0.04,4.32-0.16,6.46-0.52l0.23,1.96c-2.5,0.45-4.77,0.54-7.65,0.54H0.1V1.84h7.72v1.93H2.46
		V10.96z M14.85,8.39h-2.41v8.53h-2.38V0.3h2.38v6.12h2.41V8.39z"/>
	<path class="st0" d="M30.54,8.03V9.9H15.56V8.03H30.54z M29.06,3.85c0,2.02-2.36,3.22-6.01,3.22c-3.66,0-6-1.21-6-3.22
		c0-2,2.34-3.22,6-3.22C26.71,0.63,29.06,1.85,29.06,3.85z M28.76,11.07v5.62H17.31v-5.62H28.76z M19.5,3.85
		c0,0.94,1.3,1.4,3.55,1.4c2.27,0,3.56-0.47,3.56-1.4c0-0.94-1.3-1.4-3.56-1.4C20.8,2.45,19.5,2.92,19.5,3.85z M19.63,12.93v1.91
		h6.79v-1.91H19.63z"/>
	<path class="st0" d="M36.96,4.45c0,2.68,0.72,5.44,2.97,6.93l-1.3,1.84c-1.4-0.86-2.29-2.27-2.81-3.94
		c-0.58,1.84-1.55,3.42-3.04,4.32l-1.42-1.78c2.43-1.48,3.31-4.45,3.31-7.27V1.75h2.29V4.45z M40.28,0.57h2.21v15.57h-2.21V7.83
		h-2.09V5.9h2.09V0.57z M45.89,0.3v16.58h-2.25V0.3H45.89z"/>
	<path class="st0" d="M50.59,11.2c1.55-0.04,2.95-0.13,4.54-0.41l0.18,1.93c-2.02,0.38-3.78,0.45-5.91,0.45h-1.15V2.21h6.14v1.93
		h-3.8V11.2z M62.01,0.29v16.6h-2.25v-8.3h-1.49v7.53h-2.21V0.61h2.21v6.07h1.49V0.29H62.01z"/>
	<path class="st0" d="M21.05,34.92h-7.06v6.18h-2.64v-6.18H4.4v-2.1h16.64V34.92z M5.18,29.7c3.76-0.46,5.72-2.26,5.98-4.02h-5.3
		v-2.1h13.66v2.1H14.3c0.26,1.76,2.2,3.56,5.94,4.02l-0.94,2.06c-3.22-0.44-5.48-1.82-6.58-3.7c-1.1,1.88-3.36,3.26-6.58,3.7
		L5.18,29.7z"/>
	<path class="st0" d="M39.45,31.36v2.08h-7.06v1.62h-2.64v-1.62h-6.96v-2.08H39.45z M23.48,28.82c3.94-0.24,5.74-1.32,6.08-2.54
		h-5.2v-2.06h5.4v-1.58h2.64v1.58h5.44v2.06h-5.22c0.34,1.22,2.14,2.3,6.08,2.54l-0.76,1.96c-3.38-0.22-5.7-1.14-6.86-2.56
		c-1.14,1.42-3.46,2.34-6.86,2.56L23.48,28.82z M32.42,35.96c0,1.4,1.76,2.8,5.84,3.1L37.46,41c-3.12-0.26-5.3-1.2-6.42-2.6
		c-1.1,1.38-3.26,2.36-6.38,2.6l-0.8-1.94c4.02-0.32,5.84-1.78,5.84-3.1v-0.28h2.72V35.96z"/>
	<path class="st0" d="M57.83,30.1v2.08H41.18V30.1h7v-1.16h-4.92v-5.68h12.48v2.06h-9.86v1.56h10v2.06h-5.06v1.16H57.83z
		 M45.72,38.94h10.56v1.98H43.1v-4.86h10.1v-0.98H43.08v-1.94H55.8v4.74H45.72V38.94z"/>
</g>
</svg>
