<?xml version="1.0" encoding="utf-8"?>
<!-- Generator: Adobe Illustrator 24.0.1, SVG Export Plug-In . SVG Version: 6.00 Build 0)  -->
<svg version="1.1" id="Layer_1" xmlns="http://www.w3.org/2000/svg" xmlns:xlink="http://www.w3.org/1999/xlink" x="0px" y="0px"
	 viewBox="0 0 35.2 42.12" style="enable-background:new 0 0 35.2 42.12;" xml:space="preserve">
<style type="text/css">
	.st0{fill:#FFFFFF;}
</style>
<g>
	<path class="st0" d="M9.76,9.26v2.6h5.12v6.58h-2.66v-4.5H1.8v-2.08h5.32v-2.6h-7v-2.1h11.72c0.34-1.68,0.4-3.02,0.4-4.24H2.18V0.8
		h12.66v1.48c0,1.38,0,2.92-0.36,4.88h2.32v2.1H9.76z"/>
	<path class="st0" d="M21.88,11.68c1.44-0.04,3.02-0.16,4.78-0.48l0.22,2.22c-2.4,0.44-4.52,0.54-6.36,0.54h-1.28V2.06h2.64V11.68z
		 M34.3,0v18.42h-2.52V9.24h-1.66v8.32h-2.46V0.34h2.46V7.1h1.66V0H34.3z"/>
	<path class="st0" d="M9.72,34.94c-1.92-0.7-3.24-2.04-4-3.74c-0.78,1.9-2.2,3.4-4.34,4.18L0,33.32c3.04-1.02,4.32-3.58,4.32-6.2
		v-1.98H7v2c0,2.4,1.24,4.74,4.12,5.76L9.72,34.94z M15.92,40.02v2.1H3.36v-5.86H6v3.76H15.92z M12.88,30.08H9.5v-2.14h3.38v-3.92
		h2.64v13.6h-2.64V30.08z"/>
	<path class="st0" d="M35.2,38.1v2.12H18.52V38.1h3.5v-5.82h2.6v5.82h1.96v-5.82h2.58v5.82H35.2z M30.42,35.64
		c0.6-3.34,0.62-5.82,0.62-7.94h-10.9v-2.1h13.54v1.78c0,2.26,0,4.8-0.62,8.52L30.42,35.64z"/>
</g>
<g>
	<path class="st0" d="M746.24,102.65h3.06v2.1h-8.8v-2.1h3.14v-2.28h2.6V102.65z M748.98,109.96c0,2.56-1.68,4.38-4.04,4.38
		c-2.36,0-4.04-1.82-4.04-4.38c0-2.58,1.68-4.4,4.04-4.4C747.3,105.55,748.98,107.38,748.98,109.96z M746.66,109.96
		c0-1.38-0.72-2.2-1.72-2.2c-1,0-1.72,0.82-1.72,2.2s0.72,2.18,1.72,2.18C745.94,112.14,746.66,111.34,746.66,109.96z M756.32,99.85
		v18.42h-2.5v-8.78h-1.4v8.02h-2.46v-17.3h2.46v7.16h1.4v-7.52H756.32z"/>
	<path class="st0" d="M766.16,112.34c1.5-0.1,3.04-0.22,4.48-0.44l0.16,1.9c-3.96,0.8-8.28,0.84-11.46,0.84L759,112.5
		c1.34,0,2.9,0,4.52-0.04v-2.58c-2.2-0.48-3.74-2.18-3.74-4.4c0-2.64,2.18-4.54,5.06-4.54c2.88,0,5.08,1.9,5.08,4.54
		c0,2.22-1.56,3.92-3.76,4.4V112.34z M764.84,107.76c1.42,0,2.5-0.84,2.5-2.28c0-1.44-1.08-2.28-2.5-2.28c-1.42,0-2.5,0.84-2.5,2.28
		C762.34,106.92,763.42,107.76,764.84,107.76z M774.28,99.85v18.48h-2.64V99.85H774.28z"/>
	<path class="st0" d="M750.12,134.8c-1.92-0.7-3.24-2.04-4-3.74c-0.78,1.9-2.2,3.4-4.34,4.18l-1.38-2.06
		c3.04-1.02,4.32-3.58,4.32-6.2v-1.98h2.68v2c0,2.4,1.24,4.74,4.12,5.76L750.12,134.8z M756.32,139.88v2.1h-12.56v-5.86h2.64v3.76
		H756.32z M753.28,129.94h-3.38v-2.14h3.38v-3.92h2.64v13.6h-2.64V129.94z"/>
	<path class="st0" d="M775.6,137.96v2.12h-16.68v-2.12h3.5v-5.82h2.6v5.82h1.96v-5.82h2.58v5.82H775.6z M770.82,135.5
		c0.6-3.34,0.62-5.82,0.62-7.94h-10.9v-2.1h13.54v1.78c0,2.26,0,4.8-0.62,8.52L770.82,135.5z"/>
</g>
<g>
	<path class="st0" d="M793.16,111.2c2.36-0.04,4.32-0.16,6.46-0.52l0.23,1.96c-2.5,0.45-4.77,0.54-7.65,0.54h-1.4v-11.11h7.72V104
		h-5.37V111.2z M805.55,108.63h-2.41v8.53h-2.38v-16.62h2.38v6.12h2.41V108.63z"/>
	<path class="st0" d="M821.25,108.27v1.87h-14.98v-1.87H821.25z M819.77,104.09c0,2.02-2.36,3.22-6.01,3.22c-3.66,0-6-1.21-6-3.22
		c0-2,2.34-3.22,6-3.22C817.41,100.87,819.77,102.09,819.77,104.09z M819.46,111.31v5.62h-11.45v-5.62H819.46z M810.21,104.09
		c0,0.94,1.3,1.4,3.55,1.4c2.27,0,3.56-0.47,3.56-1.4c0-0.94-1.3-1.4-3.56-1.4C811.5,102.69,810.21,103.15,810.21,104.09z
		 M810.33,113.16v1.91h6.79v-1.91H810.33z"/>
	<path class="st0" d="M827.67,104.68c0,2.68,0.72,5.44,2.97,6.93l-1.3,1.84c-1.4-0.86-2.29-2.27-2.81-3.94
		c-0.58,1.84-1.55,3.42-3.04,4.32l-1.42-1.78c2.43-1.48,3.31-4.45,3.31-7.27v-2.79h2.29V104.68z M830.98,100.81h2.21v15.57h-2.21
		v-8.32h-2.09v-1.93h2.09V100.81z M836.6,100.54v16.58h-2.25v-16.58H836.6z"/>
	<path class="st0" d="M841.29,111.44c1.55-0.04,2.95-0.13,4.54-0.41l0.18,1.93c-2.02,0.38-3.78,0.45-5.91,0.45h-1.15v-10.95h6.14
		v1.93h-3.8V111.44z M852.71,100.52v16.6h-2.25v-8.3h-1.49v7.53h-2.21v-15.5h2.21v6.07h1.49v-6.39H852.71z"/>
	<path class="st0" d="M811.75,135.16h-7.06v6.18h-2.64v-6.18h-6.94v-2.1h16.64V135.16z M795.89,129.94
		c3.76-0.46,5.72-2.26,5.98-4.02h-5.3v-2.1h13.66v2.1h-5.22c0.26,1.76,2.2,3.56,5.94,4.02l-0.94,2.06c-3.22-0.44-5.48-1.82-6.58-3.7
		c-1.1,1.88-3.36,3.26-6.58,3.7L795.89,129.94z"/>
	<path class="st0" d="M830.15,131.6v2.08h-7.06v1.62h-2.64v-1.62h-6.96v-2.08H830.15z M814.19,129.05c3.94-0.24,5.74-1.32,6.08-2.54
		h-5.2v-2.06h5.4v-1.58h2.64v1.58h5.44v2.06h-5.22c0.34,1.22,2.14,2.3,6.08,2.54l-0.76,1.96c-3.38-0.22-5.7-1.14-6.86-2.56
		c-1.14,1.42-3.46,2.34-6.86,2.56L814.19,129.05z M823.13,136.2c0,1.4,1.76,2.8,5.84,3.1l-0.8,1.94c-3.12-0.26-5.3-1.2-6.42-2.6
		c-1.1,1.38-3.26,2.36-6.38,2.6l-0.8-1.94c4.02-0.32,5.84-1.78,5.84-3.1v-0.28h2.72V136.2z"/>
	<path class="st0" d="M848.53,130.33v2.08h-16.64v-2.08h7v-1.16h-4.92v-5.68h12.48v2.06h-9.86v1.56h10v2.06h-5.06v1.16H848.53z
		 M836.43,139.18h10.56v1.98h-13.18v-4.86h10.1v-0.98h-10.12v-1.94h12.72v4.74h-10.08V139.18z"/>
</g>
</svg>
