<?xml version="1.0" encoding="utf-8"?>
<!-- Generator: Adobe Illustrator 24.0.1, SVG Export Plug-In . SVG Version: 6.00 Build 0)  -->
<svg version="1.1" id="Layer_1" xmlns="http://www.w3.org/2000/svg" xmlns:xlink="http://www.w3.org/1999/xlink" x="0px" y="0px"
	 viewBox="0 0 35.2 42.46" style="enable-background:new 0 0 35.2 42.46;" xml:space="preserve">
<style type="text/css">
	.st0{fill:#FFFFFF;}
</style>
<g>
	<path class="st0" d="M62.53,55.26v2.6h5.12v6.58h-2.66v-4.5H54.57v-2.08h5.32v-2.6h-7v-2.1h11.72c0.34-1.68,0.4-3.02,0.4-4.24
		H54.95V46.8h12.66v1.48c0,1.38,0,2.92-0.36,4.88h2.32v2.1H62.53z"/>
	<path class="st0" d="M74.65,57.68c1.44-0.04,3.02-0.16,4.78-0.48l0.22,2.22c-2.4,0.44-4.52,0.54-6.36,0.54h-1.28v-11.9h2.64V57.68z
		 M87.07,46v18.42h-2.52v-9.18h-1.66v8.32h-2.46V46.34h2.46v6.76h1.66V46H87.07z"/>
	<path class="st0" d="M62.49,80.94c-1.92-0.7-3.24-2.04-4-3.74c-0.78,1.9-2.2,3.4-4.34,4.18l-1.38-2.06
		c3.04-1.02,4.32-3.58,4.32-6.2v-1.98h2.68v2c0,2.4,1.24,4.74,4.12,5.76L62.49,80.94z M68.69,86.02v2.1H56.13v-5.86h2.64v3.76H68.69
		z M65.65,76.08h-3.38v-2.14h3.38v-3.92h2.64v13.6h-2.64V76.08z"/>
	<path class="st0" d="M87.97,84.1v2.12H71.29V84.1h3.5v-5.82h2.6v5.82h1.96v-5.82h2.58v5.82H87.97z M83.19,81.64
		c0.6-3.34,0.62-5.82,0.62-7.94h-10.9v-2.1h13.54v1.78c0,2.26,0,4.8-0.62,8.52L83.19,81.64z"/>
</g>
<g>
	<path class="st0" d="M5.84,2.8H8.9v2.1H0.1V2.8h3.14V0.52h2.6V2.8z M8.58,10.1c0,2.56-1.68,4.38-4.04,4.38
		c-2.36,0-4.04-1.82-4.04-4.38c0-2.58,1.68-4.4,4.04-4.4C6.9,5.7,8.58,7.52,8.58,10.1z M6.26,10.1c0-1.38-0.72-2.2-1.72-2.2
		c-1,0-1.72,0.82-1.72,2.2s0.72,2.18,1.72,2.18C5.54,12.28,6.26,11.48,6.26,10.1z M15.92,0v18.42h-2.5V9.64h-1.4v8.02H9.56V0.36
		h2.46v7.16h1.4V0H15.92z"/>
	<path class="st0" d="M25.76,12.48c1.5-0.1,3.04-0.22,4.48-0.44l0.16,1.9c-3.96,0.8-8.28,0.84-11.46,0.84l-0.34-2.14
		c1.34,0,2.9,0,4.52-0.04v-2.58c-2.2-0.48-3.74-2.18-3.74-4.4c0-2.64,2.18-4.54,5.06-4.54c2.88,0,5.08,1.9,5.08,4.54
		c0,2.22-1.56,3.92-3.76,4.4V12.48z M24.44,7.9c1.42,0,2.5-0.84,2.5-2.28c0-1.44-1.08-2.28-2.5-2.28c-1.42,0-2.5,0.84-2.5,2.28
		C21.94,7.06,23.02,7.9,24.44,7.9z M33.88,0v18.48h-2.64V0H33.88z"/>
	<path class="st0" d="M9.72,34.94c-1.92-0.7-3.24-2.04-4-3.74c-0.78,1.9-2.2,3.4-4.34,4.18L0,33.32c3.04-1.02,4.32-3.58,4.32-6.2
		v-1.98H7v2c0,2.4,1.24,4.74,4.12,5.76L9.72,34.94z M15.92,40.02v2.1H3.36v-5.86H6v3.76H15.92z M12.88,30.08H9.5v-2.14h3.38v-3.92
		h2.64v13.6h-2.64V30.08z"/>
	<path class="st0" d="M35.2,38.1v2.12H18.52V38.1h3.5v-5.82h2.6v5.82h1.96v-5.82h2.58v5.82H35.2z M30.42,35.64
		c0.6-3.34,0.62-5.82,0.62-7.94h-10.9v-2.1h13.54v1.78c0,2.26,0,4.8-0.62,8.52L30.42,35.64z"/>
</g>
<g>
	<path class="st0" d="M106,9.06c2.36-0.04,4.32-0.16,6.46-0.52l0.23,1.96c-2.5,0.45-4.77,0.54-7.65,0.54h-1.4V-0.07h7.72v1.93H106
		V9.06z M118.39,6.49h-2.41v8.53h-2.38V-1.6h2.38v6.12h2.41V6.49z"/>
	<path class="st0" d="M134.08,6.13V8H119.1V6.13H134.08z M132.61,1.95c0,2.02-2.36,3.22-6.01,3.22c-3.66,0-6-1.21-6-3.22
		c0-2,2.34-3.22,6-3.22C130.25-1.27,132.61-0.05,132.61,1.95z M132.3,9.17v5.62h-11.45V9.17H132.3z M123.05,1.95
		c0,0.94,1.3,1.4,3.55,1.4c2.27,0,3.56-0.47,3.56-1.4c0-0.94-1.3-1.4-3.56-1.4C124.34,0.55,123.05,1.01,123.05,1.95z M123.17,11.03
		v1.91h6.79v-1.91H123.17z"/>
	<path class="st0" d="M140.51,2.54c0,2.68,0.72,5.44,2.97,6.93l-1.3,1.84c-1.4-0.86-2.29-2.27-2.81-3.94
		c-0.58,1.84-1.55,3.42-3.04,4.32l-1.42-1.78c2.43-1.48,3.31-4.45,3.31-7.27v-2.79h2.29V2.54z M143.82-1.33h2.21v15.57h-2.21V5.93
		h-2.09V4h2.09V-1.33z M149.44-1.6v16.58h-2.25V-1.6H149.44z"/>
	<path class="st0" d="M154.13,9.3c1.55-0.04,2.95-0.13,4.54-0.41l0.18,1.93c-2.02,0.38-3.78,0.45-5.91,0.45h-1.15V0.31h6.14v1.93
		h-3.8V9.3z M165.55-1.62v16.6h-2.25v-8.3h-1.49v7.53h-2.21v-15.5h2.21v6.07h1.49v-6.39H165.55z"/>
	<path class="st0" d="M124.59,33.02h-7.06v6.18h-2.64v-6.18h-6.94v-2.1h16.64V33.02z M108.73,27.8c3.76-0.46,5.72-2.26,5.98-4.02
		h-5.3v-2.1h13.66v2.1h-5.22c0.26,1.76,2.2,3.56,5.94,4.02l-0.94,2.06c-3.22-0.44-5.48-1.82-6.58-3.7c-1.1,1.88-3.36,3.26-6.58,3.7
		L108.73,27.8z"/>
	<path class="st0" d="M142.99,29.46v2.08h-7.06v1.62h-2.64v-1.62h-6.96v-2.08H142.99z M127.03,26.92c3.94-0.24,5.74-1.32,6.08-2.54
		h-5.2v-2.06h5.4v-1.58h2.64v1.58h5.44v2.06h-5.22c0.34,1.22,2.14,2.3,6.08,2.54l-0.76,1.96c-3.38-0.22-5.7-1.14-6.86-2.56
		c-1.14,1.42-3.46,2.34-6.86,2.56L127.03,26.92z M135.97,34.06c0,1.4,1.76,2.8,5.84,3.1l-0.8,1.94c-3.12-0.26-5.3-1.2-6.42-2.6
		c-1.1,1.38-3.26,2.36-6.38,2.6l-0.8-1.94c4.02-0.32,5.84-1.78,5.84-3.1v-0.28h2.72V34.06z"/>
	<path class="st0" d="M161.37,28.2v2.08h-16.64V28.2h7v-1.16h-4.92v-5.68h12.48v2.06h-9.86v1.56h10v2.06h-5.06v1.16H161.37z
		 M149.27,37.04h10.56v1.98h-13.18v-4.86h10.1v-0.98h-10.12v-1.94h12.72v4.74h-10.08V37.04z"/>
</g>
</svg>
